<?xml version="1.0" encoding="UTF-8" standalone="no"?>
<!-- Created with Inkscape (http://www.inkscape.org/) -->
<svg
   xmlns:svg="http://www.w3.org/2000/svg"
   xmlns="http://www.w3.org/2000/svg"
   version="1.0"
   width="442.41"
   height="457.21"
   viewBox="1732 2232 5829 6165"
   id="svg2">
  <defs
     id="defs70" />
  <path
     d="M 5104.6,5326 C 5104.6,5377.9 5062.5,5420 5010.6,5420 C 4958.7,5420 4916.6,5377.9 4916.6,5326 C 4916.6,5274.1 4958.7,5232 5010.6,5232 C 5062.5,5232 5104.6,5274.1 5104.6,5326 z M 5104.6,2350 C 5104.6,2401.9 5062.5,2444 5010.6,2444 C 4958.7,2444 4916.6,2401.9 4916.6,2350 C 4916.6,2298.1 4958.7,2256 5010.6,2256 C 5062.5,2256 5104.6,2298.1 5104.6,2350 z M 5104.6,8255 C 5104.6,8306.9 5062.5,8349 5010.6,8349 C 4958.7,8349 4916.6,8306.9 4916.6,8255 C 4916.6,8203.1 4958.7,8161 5010.6,8161 C 5062.5,8161 5104.6,8203.1 5104.6,8255 z"
     id="circle22"
     style="fill:#000000;stroke:#000000;stroke-width:48" />
  <path
     d="M 2316.6,2350 C 2316.6,2401.9 2274.5,2444 2222.6,2444 C 2170.7,2444 2128.6,2401.9 2128.6,2350 C 2128.6,2298.1 2170.7,2256 2222.6,2256 C 2274.5,2256 2316.6,2298.1 2316.6,2350 z M 2316.6,8255 C 2316.6,8306.9 2274.5,8349 2222.6,8349 C 2170.7,8349 2128.6,8306.9 2128.6,8255 C 2128.6,8203.1 2170.7,8161 2222.6,8161 C 2274.5,8161 2316.6,8203.1 2316.6,8255 z M 6757.6,5326 C 6757.6,5377.9 6715.5,5420 6663.6,5420 C 6611.7,5420 6569.6,5377.9 6569.6,5326 C 6569.6,5274.1 6611.7,5232 6663.6,5232 C 6715.5,5232 6757.6,5274.1 6757.6,5326 z M 6757.6,8255 C 6757.6,8306.9 6715.5,8349 6663.6,8349 C 6611.7,8349 6569.6,8306.9 6569.6,8255 C 6569.6,8203.1 6611.7,8161 6663.6,8161 C 6715.5,8161 6757.6,8203.1 6757.6,8255 z M 6757.6,2350 C 6757.6,2401.9 6715.5,2444 6663.6,2444 C 6611.7,2444 6569.6,2401.9 6569.6,2350 C 6569.6,2298.1 6611.7,2256 6663.6,2256 C 6715.5,2256 6757.6,2298.1 6757.6,2350 z"
     id="circle28"
     style="fill:none;stroke:#000000;stroke-width:48" />
  <path
     d="M 5010.6,4712 L 5010.6,5893 M 4679.6,5893 L 5388.6,5893 L 5388.6,7783 L 4679.6,7783 L 4679.6,5893 M 4679.6,2822 L 5388.6,2822 L 5388.6,4712 L 4679.6,4712 L 4679.6,2822 M 2317.8,2350 L 6555,2350 M 5010.6,2350 L 5010.6,2822 M 5010.6,7783 L 5010.6,8255 M 2317.6,8255 L 6569.6,8255 M 5104.6,5326 L 6569.6,5326"
     id="polyline38"
     style="fill:none;stroke:#000000;stroke-width:48;stroke-linecap:butt;stroke-linejoin:miter" />
  <path
     d="M 2222.6,2586 L 2222.6,7767 M 6663.6,5515 L 6663.6,7767 M 6663.6,2586 L 6663.6,4838 M 2159.6,7699 L 2222.6,7951 L 2285.6,7699 L 2159.6,7699 M 6600.6,7699 L 6663.6,7951 L 6726.6,7699 L 6600.6,7699 M 6600.6,4770 L 6663.6,5022 L 6726.6,4770 L 6600.6,4770"
     id="polyline50"
     style="fill:#0000ff;stroke:#0000ff;stroke-width:32;stroke-linecap:butt;stroke-linejoin:miter" />
  <text
     style="font-size:377.55081px;font-style:normal;font-variant:normal;font-weight:normal;font-stretch:normal;text-align:start;line-height:125%;writing-mode:lr-tb;text-anchor:start;fill:#000000;fill-opacity:1;stroke:none;stroke-width:1px;stroke-linecap:butt;stroke-linejoin:miter;stroke-opacity:1;font-family:Arial;-inkscape-font-specification:Arial"><tspan
        x="4301.5815"
        y="7015">2</tspan>
     <tspan
        x="4301.5815"
        y="3944">1</tspan>
     <tspan
        x="7356.5815"
        y="7015">2</tspan>
     <tspan
        x="7356.5815"
        y="3944">1</tspan>
  </text>
  <text
     style="font-size:537.25488px;font-style:normal;font-variant:normal;font-weight:normal;font-stretch:normal;text-align:start;line-height:125%;writing-mode:lr-tb;text-anchor:start;fill:#000000;fill-opacity:1;stroke:none;stroke-width:1px;stroke-linecap:butt;stroke-linejoin:miter;stroke-opacity:1;font-family:Arial;-inkscape-font-specification:Arial"><tspan
        x="3882.7412"
        y="6885">R</tspan>
     <tspan
        x="3882.7412"
        y="3814">R</tspan>
     <tspan
        x="6987.646"
        y="6885">U</tspan>
     <tspan
        x="6987.646"
        y="3814">U</tspan>
     <tspan
        x="1703.5813"
        y="5326">U</tspan>
  </text>
</svg>
